<svg id="Warstwa_1" data-name="Warstwa 1" xmlns="http://www.w3.org/2000/svg" xmlns:xlink="http://www.w3.org/1999/xlink" viewBox="0 0 92.75 92.75"><defs><style>.cls-1{fill:none;}.cls-2{fill:#fff;}.cls-3{fill:#ed1c24;}.cls-4{clip-path:url(#clip-path);}</style><clipPath id="clip-path" transform="translate(-3.16 -2.14)"><rect class="cls-1" x="3.16" y="2.14" width="92.75" height="92.75"/></clipPath></defs><circle class="cls-2" cx="46.38" cy="46.38" r="35.18"/><path class="cls-3" d="M43.22,59.05H55.86V69.6H43.22Z" transform="translate(-3.16 -2.14)"/><path class="cls-3" d="M53.76,50.62a3.81,3.81,0,0,0-.09-.82,4.45,4.45,0,0,0-.23-.79,4.13,4.13,0,0,0-.92-1.37,3.55,3.55,0,0,0-.64-.52,3.93,3.93,0,0,0-.73-.39,3.61,3.61,0,0,0-.79-.24,3.8,3.8,0,0,0-.82-.08,3.74,3.74,0,0,0-.82.08,3.69,3.69,0,0,0-.8.24,4.19,4.19,0,0,0-.72.39,3.55,3.55,0,0,0-.64.52A4.13,4.13,0,0,0,45.64,49a5.53,5.53,0,0,0-.24.79,4.56,4.56,0,0,0-.08.82v4.22h8.44Z" transform="translate(-3.16 -2.14)"/><g class="cls-4"><path class="cls-3" d="M49.54,2.14c-1.52,0-3,.07-4.55.22s-3,.37-4.5.67a44.44,44.44,0,0,0-4.41,1.11,45.35,45.35,0,0,0-8.4,3.48A42.8,42.8,0,0,0,23.78,10a42.19,42.19,0,0,0-3.66,2.71c-1.18,1-2.3,2-3.38,3.05s-2.09,2.2-3,3.37A45.49,45.49,0,0,0,11,22.75a44.21,44.21,0,0,0-2.34,3.9C7.92,28,7.28,29.36,6.69,30.77S5.6,33.6,5.16,35.05,4.35,38,4.05,39.47s-.52,3-.67,4.5-.22,3-.22,4.55.08,3,.22,4.54.38,3,.67,4.5.67,3,1.11,4.42,1,2.88,1.53,4.28,1.23,2.78,2,4.12A42.8,42.8,0,0,0,11,74.28a45.49,45.49,0,0,0,2.71,3.66q1.44,1.75,3,3.37c1.08,1.07,2.2,2.09,3.38,3.06s2.39,1.86,3.66,2.71,2.56,1.62,3.9,2.34,2.71,1.36,4.11,1.94a45.52,45.52,0,0,0,4.29,1.53A44.44,44.44,0,0,0,40.49,94c1.49.3,3,.52,4.5.67s3,.22,4.55.22,3-.07,4.54-.22A45.39,45.39,0,0,0,58.59,94,44.44,44.44,0,0,0,63,92.89c1.46-.44,2.88-1,4.29-1.53s2.77-1.23,4.11-1.94,2.64-1.5,3.9-2.34,2.49-1.75,3.66-2.71,2.3-2,3.37-3.06,2.09-2.2,3.06-3.37,1.87-2.4,2.71-3.66,1.62-2.56,2.34-3.9,1.36-2.71,1.94-4.12A43.66,43.66,0,0,0,93.92,62c.44-1.46.81-2.93,1.11-4.42s.52-3,.66-4.5.23-3,.23-4.54-.08-3-.23-4.55-.38-3-.68-4.5a44.39,44.39,0,0,0-1.1-4.41c-.45-1.46-1-2.88-1.54-4.28a44.29,44.29,0,0,0-2-4.12,42.8,42.8,0,0,0-2.34-3.9c-.84-1.26-1.75-2.48-2.71-3.65s-2-2.3-3.05-3.37-2.2-2.1-3.37-3.06-2.4-1.86-3.66-2.71-2.56-1.62-3.9-2.34-2.71-1.36-4.11-1.95A45.52,45.52,0,0,0,63,4.15Q60.82,3.49,58.58,3a44.76,44.76,0,0,0-4.5-.67C52.57,2.22,51.06,2.14,49.54,2.14ZM60.08,71.7a2.05,2.05,0,0,1-.16.81,2,2,0,0,1-.46.68,2.1,2.1,0,0,1-.68.46,2.05,2.05,0,0,1-.81.16H41.11a2.05,2.05,0,0,1-.81-.16,2.17,2.17,0,0,1-1.14-1.14A2.05,2.05,0,0,1,39,71.7V57a2.05,2.05,0,0,1,.16-.81,2.1,2.1,0,0,1,.46-.68A1.86,1.86,0,0,1,40.3,55a2.05,2.05,0,0,1,.81-.16V50.62A8.21,8.21,0,0,1,41.27,49a8.73,8.73,0,0,1,.48-1.58,8.19,8.19,0,0,1,.78-1.46,8,8,0,0,1,1-1.28,8.54,8.54,0,0,1,1.27-1,8.89,8.89,0,0,1,1.46-.78,8.73,8.73,0,0,1,1.58-.48,8.59,8.59,0,0,1,3.3,0,8.32,8.32,0,0,1,3,1.26,8.14,8.14,0,0,1,1.28,1,8.62,8.62,0,0,1,1,1.28,8.19,8.19,0,0,1,.78,1.46A8.73,8.73,0,0,1,57.81,49,8.21,8.21,0,0,1,58,50.62v4.22a2.05,2.05,0,0,1,.81.16,2,2,0,0,1,.68.46,2.1,2.1,0,0,1,.46.68,2.05,2.05,0,0,1,.16.81Zm5.27-4.21a2.25,2.25,0,0,1-.81-.16,2.1,2.1,0,0,1-.68-.46,2.21,2.21,0,0,1-.46-.68,2.13,2.13,0,0,1,0-1.62,2.21,2.21,0,0,1,.46-.68,2.1,2.1,0,0,1,.68-.46,2.05,2.05,0,0,1,.81-.16A12.53,12.53,0,0,0,67.54,63a11.09,11.09,0,0,0,2.1-.65,11.37,11.37,0,0,0,2-1,11.75,11.75,0,0,0,3.13-3,11,11,0,0,0,1.09-1.92,11.66,11.66,0,0,0,.7-2.09,12.16,12.16,0,0,0,.29-2.18,10.74,10.74,0,0,0-.13-2.19,12.17,12.17,0,0,0-.53-2.14A11.59,11.59,0,0,0,73.92,44a11,11,0,0,0-1.61-1.51,11.19,11.19,0,0,0-1.86-1.17,10.67,10.67,0,0,0-2-.81,11.27,11.27,0,0,0-2.16-.4,2.19,2.19,0,0,1-.76-.2,2.08,2.08,0,0,1-.63-.47,2,2,0,0,1-.41-.67,2,2,0,0,1-.15-.77,14.88,14.88,0,0,0-.24-2.9,15.23,15.23,0,0,0-.82-2.8,14.86,14.86,0,0,0-3.18-4.85,14.34,14.34,0,0,0-2.24-1.87,14.69,14.69,0,0,0-2.56-1.38,14.3,14.3,0,0,0-2.79-.86,14.72,14.72,0,0,0-8.59.84,14.05,14.05,0,0,0-2.56,1.38,13.41,13.41,0,0,0-2.25,1.86,14.9,14.9,0,0,0-4,7.63A14.93,14.93,0,0,0,34.78,38a2,2,0,0,1-.14.77,2.06,2.06,0,0,1-.41.68,2.11,2.11,0,0,1-.63.48,2.29,2.29,0,0,1-.76.22,11.37,11.37,0,0,0-2.17.4,10.84,10.84,0,0,0-2,.81,11.71,11.71,0,0,0-1.87,1.17A11.41,11.41,0,0,0,25.16,44a10.77,10.77,0,0,0-1.29,1.78,12,12,0,0,0-.93,2,11.37,11.37,0,0,0-.54,2.14,11.5,11.5,0,0,0-.12,2.19,11.32,11.32,0,0,0,.29,2.18,11.66,11.66,0,0,0,1.78,4A12,12,0,0,0,25.78,60a10.76,10.76,0,0,0,1.71,1.38,11.37,11.37,0,0,0,2,1,11.09,11.09,0,0,0,2.1.65,12.33,12.33,0,0,0,2.19.23,2.05,2.05,0,0,1,.81.16,2.1,2.1,0,0,1,.68.46,2.21,2.21,0,0,1,.46.68,2.13,2.13,0,0,1,0,1.62,2.21,2.21,0,0,1-.46.68,2.1,2.1,0,0,1-.68.46,2.25,2.25,0,0,1-.81.16,16.55,16.55,0,0,1-2.89-.28,16.09,16.09,0,0,1-5.38-2.09,17.1,17.1,0,0,1-2.31-1.75,16.53,16.53,0,0,1-2-2.14,16.33,16.33,0,0,1-1.53-2.46,15.6,15.6,0,0,1-1.06-2.7,15.25,15.25,0,0,1-.54-2.85,15.6,15.6,0,0,1,0-2.9,16.22,16.22,0,0,1,.51-2.85,16.06,16.06,0,0,1,2.53-5.19A16.55,16.55,0,0,1,23,40.11,15.67,15.67,0,0,1,27.88,37a15.09,15.09,0,0,1,2.78-.84,18.93,18.93,0,0,1,3.77-9.65,19.13,19.13,0,0,1,5.15-4.67,19,19,0,0,1,3.13-1.56,19.65,19.65,0,0,1,3.35-.95,18.89,18.89,0,0,1,13.45,2.51A18.86,18.86,0,0,1,62.3,24a18.47,18.47,0,0,1,2.35,2.57,19,19,0,0,1,3.12,6.22,19.06,19.06,0,0,1,.66,3.43,15.32,15.32,0,0,1,2.78.84,16,16,0,0,1,2.57,1.32,15.2,15.2,0,0,1,2.3,1.78A16.54,16.54,0,0,1,78,42.28a16.86,16.86,0,0,1,1.5,2.48,15.24,15.24,0,0,1,1,2.71,16.41,16.41,0,0,1,.52,2.85,16.64,16.64,0,0,1,0,2.91,16.19,16.19,0,0,1-.55,2.84,15.29,15.29,0,0,1-1.06,2.7,15.56,15.56,0,0,1-1.53,2.46,15.32,15.32,0,0,1-2,2.14,15.47,15.47,0,0,1-4.91,3,15,15,0,0,1-2.78.8A16.55,16.55,0,0,1,65.35,67.49Z" transform="translate(-3.16 -2.14)"/></g></svg>